:SAMPLES-PER-SECOND 30
:FULLY-SPECIFIED
:DEGREES
680
root  -13.6006 39.0926 -2.27153 -1.10403 -80.7719 -7.84863
RightUpLeg  15.4949 -11.1049 -0.830938
RightLeg  10.0995 -2.67948 3.71245
RightFoot  -15.2807 -0.226744 -3.58382
RightToes  2.96859e-009 0 -3.6325e-017
Spine  5.47099 -3.20663 8.74608
Spine1  12.2721 -1.4454 -4.92086
HEad  -7.52405 -0.836784 -1.21196
LeftShoulder1  0.06465 3.30121 -25.6714
LeftArm  -18.0588 2.93299 -38.4369
LeftForeArm  81.826 -78.4549 -105.485
LeftHand  -0.0209282 5.07113 -3.8857
RightShoulder  -0.221934 -4.23642 22.8838
RightArm  -16.7772 -8.45854 40.8186
RightForeArm  109.898 70.5681 144.349
RightHand  -0.0515005 -3.92644 -2.53948
LeftUpLeg  -14.0733 -2.62475 -1.31405
LeftLeg  2.83906 -4.18446 1.58317
LeftFoot  -0.137609 0.551442 -5.54911
LeftToes  3.24686e-010 -7.02549e-012 1.39809e-011
681
root  -14.8365 38.8482 -2.17079 1.34399 -80.0879 -10.0481
RightUpLeg  17.5992 -11.1849 -0.612187
RightLeg  9.72867 -3.01823 4.01259
RightFoot  -17.0307 -0.271579 -3.15923
RightToes  2.96859e-009 0 -3.6325e-017
Spine  4.80125 -3.6413 8.58208
Spine1  12.2246 -2.02442 -5.02811
HEad  -7.47687 -0.467701 -0.817883
LeftShoulder1  0.00855676 3.4769 -25.5306
LeftArm  -17.8858 3.18797 -38.3054
LeftForeArm  82.2985 -78.3981 -106.268
LeftHand  -0.0292447 5.29204 -3.54977
RightShoulder  -0.2276 -4.24908 23.1369
RightArm  -16.488 -8.4271 40.8187
RightForeArm  109.564 70.7583 143.927
RightHand  -0.0501705 -3.85143 -2.33736
LeftUpLeg  -14.0693 -1.14674 -2.173
LeftLeg  -2.50556 -3.0627 1.54756
LeftFoot  1.3786 0.865291 -7.83597
LeftToes  3.24686e-010 -7.02549e-012 1.39809e-011
682
root  -16.1437 38.5817 -2.09806 2.2612 -80.0865 -11.3156
RightUpLeg  20.3573 -11.1561 -0.633858
RightLeg  9.55825 -2.75037 4.00736
RightFoot  -18.7272 -0.278684 -2.3558
RightToes  2.96859e-009 0 -3.6325e-017
Spine  4.2759 -3.58059 7.62989
Spine1  13.1898 -2.14067 -4.4841
HEad  -7.40942 -0.0127793 -0.287262
LeftShoulder1  0.0067592 3.48251 -25.3565
LeftArm  -17.7517 2.97384 -38.3928
LeftForeArm  81.424 -78.4261 -105.606
LeftHand  -0.036053 5.54946 -3.02333
RightShoulder  -0.253622 -4.33429 23.2376
RightArm  -16.2957 -8.45406 40.9037
RightForeArm  109.288 70.9133 143.576
RightHand  -0.045183 -4.15852 -2.29749
LeftUpLeg  -14.1613 -1.21052 -2.5614
LeftLeg  -1.75791 -1.14647 1.05887
LeftFoot  1.45636 0.734538 -6.67684
LeftToes  3.24686e-010 -7.02549e-012 1.39809e-011
683
root  -17.4891 38.3862 -2.08302 0.253906 -81.1445 -9.96835
RightUpLeg  23.5288 -10.9438 -1.2487
RightLeg  9.21718 -1.77083 3.60991
RightFoot  -19.8734 -0.234888 -1.32971
RightToes  2.96859e-009 0 -3.6325e-017
Spine  4.53459 -2.80891 5.83122
Spine1  13.6946 -1.51983 -3.68343
HEad  -7.0313 -0.565665 -0.0294937
LeftShoulder1  0.0283456 3.41435 -25.516
LeftArm  -17.0454 2.92908 -38.2943
LeftForeArm  80.6852 -78.5031 -104.468
LeftHand  -0.0301888 5.38855 -2.9801
RightShoulder  -0.213265 -4.20672 22.8893
RightArm  -16.6246 -10.1608 40.9506
RightForeArm  109.939 70.5541 144.382
RightHand  -0.0454508 -3.87937 -1.92352
LeftUpLeg  -14.522 -1.45336 -3.31302
LeftLeg  3.09405 -0.14353 1.04137
LeftFoot  5.43434 0.0335174 -0.678875
LeftToes  3.24686e-010 -7.02549e-012 1.39809e-011
684
root  -18.9029 38.242 -2.05176 -7.47913 -83.3388 -3.01614
RightUpLeg  26.5373 -10.944 -3.19248
RightLeg  9.78274 1.00502 2.8012
RightFoot  -20.7039 -0.107838 0.346124
RightToes  2.96859e-009 0 -3.6325e-017
Spine  4.70102 -1.47046 3.59318
Spine1  14.4466 -0.266999 -3.22653
HEad  -6.87737 -0.600026 0.257718
LeftShoulder1  -0.0681357 3.71548 -25.9138
LeftArm  -16.1871 2.61114 -37.9465
LeftForeArm  80.304 -78.5074 -104.247
LeftHand  -0.02005 4.9587 -2.86135
RightShoulder  -0.258082 -4.35002 23.2159
RightArm  -16.5312 -11.1429 40.4449
RightForeArm  109.167 70.4974 144.399
RightHand  -0.0590219 -3.59687 -2.68948
LeftUpLeg  -14.7456 -1.53797 -3.97957
LeftLeg  8.29055 0.824463 0.927008
LeftFoot  10.9464 -0.868606 4.20405
LeftToes  3.24686e-010 -7.02549e-012 1.39809e-011
685
root  -20.3444 38.0289 -1.93553 -26.018 -83.9664 14.7716
RightUpLeg  28.5848 -12.2534 -7.06536
RightLeg  13.0075 4.73858 2.4415
RightFoot  -22.0377 0.164312 3.33276
RightToes  2.96859e-009 0 -3.6325e-017
Spine  5.28074 -0.780065 0.061597
Spine1  14.4317 -0.0163186 -1.94701
HEad  -6.91485 -0.568956 0.304993
LeftShoulder1  -0.182387 4.06322 -26.405
LeftArm  -15.5935 2.99504 -37.3077
LeftForeArm  80.2438 -78.5106 -104.183
LeftHand  -0.0165811 4.99754 -3.13223
RightShoulder  -0.290646 -4.44477 23.7167
RightArm  -16.2766 -11.64 40.2075
RightForeArm  109.224 70.8737 143.651
RightHand  -0.0525182 -3.67713 -2.28945
LeftUpLeg  -15.4326 -2.33808 -5.49662
LeftLeg  15.6156 2.44821 1.10311
LeftFoot  9.29196 -1.207 6.31081
LeftToes  3.24686e-010 -7.02549e-012 1.39809e-011
686
root  -21.6824 37.9692 -1.7991 -39.6391 -84.3773 28.0824
RightUpLeg  28.663 -12.0708 -9.23759
RightLeg  17.882 7.17706 2.4457
RightFoot  -21.2862 0.544673 8.00817
RightToes  2.96859e-009 0 -3.6325e-017
Spine  5.48896 -0.17635 -1.62603
Spine1  14.533 0.408375 -1.79831
HEad  -6.71161 -0.461167 -0.310738
LeftShoulder1  -0.179732 4.04578 -26.9592
LeftArm  -15.2701 3.68722 -36.9819
LeftForeArm  78.8967 -78.5777 -102.786
LeftHand  -0.0229004 5.30506 -3.00026
RightShoulder  -0.279027 -4.40455 23.7745
RightArm  -16.1128 -12.6165 40.3594
RightForeArm  109.239 71.1252 143.129
RightHand  -0.0443367 -3.82763 -2.00674
LeftUpLeg  -15.29 -1.2844 -6.63728
LeftLeg  20.4538 2.73936 1.45443
LeftFoot  6.05921 -1.14974 7.27802
LeftToes  3.24686e-010 -7.02549e-012 1.39809e-011
687
root  -22.8206 38.0425 -1.48051 -42.2856 -85.0188 31.4259
RightUpLeg  24.8954 -10.4894 -9.53359
RightLeg  26.2753 7.66961 3.85736
RightFoot  -17.4766 0.618407 14.1917
RightToes  2.96859e-009 0 -3.6325e-017
Spine  5.171 -0.376675 0.341455
Spine1  14.4043 0.848292 -4.75139
HEad  -6.7342 -0.299787 -0.984789
LeftShoulder1  -0.138825 3.92566 -26.7055
LeftArm  -15.2454 4.82769 -37.2097
LeftForeArm  78.1332 -78.6306 -101.776
LeftHand  -0.0271579 5.22766 -2.98741
RightShoulder  -0.270152 -4.36029 24.2833
RightArm  -15.4651 -12.9635 40.0271
RightForeArm  108.427 71.5007 142.214
RightHand  -0.0412692 -3.3794 -1.92636
LeftUpLeg  -15.3621 -1.01895 -6.924
LeftLeg  23.0423 3.47397 1.95511
LeftFoot  3.31391 -1.13427 8.62808
LeftToes  3.24686e-010 -7.02549e-012 1.39809e-011
688
root  -23.8941 38.2006 -1.23598 -63.4418 -85.7323 53.4894
RightUpLeg  17.8477 -7.3854 -10.0864
RightLeg  38.1193 6.77219 5.41593
RightFoot  -9.34307 -0.307944 17.1871
RightToes  2.96859e-009 0 -3.6325e-017
Spine  4.97412 0.166964 -0.315089
Spine1  14.2301 1.23263 -5.15648
HEad  -7.24667 0.656351 -2.25412
LeftShoulder1  -0.124289 3.88056 -26.7626
LeftArm  -15.5403 6.04831 -37.2565
LeftForeArm  80.4314 -78.5147 -104.224
LeftHand  -0.0506971 5.98971 -2.84653
RightShoulder  -0.291535 -4.4318 24.2215
RightArm  -14.6384 -12.213 39.3714
RightForeArm  107.254 71.8763 141.209
RightHand  -0.0467061 -3.4543 -1.90177
LeftUpLeg  -14.7651 -0.0592918 -7.71429
LeftLeg  23.7522 4.48461 2.49739
LeftFoot  1.3182 -1.00559 8.96974
LeftToes  3.24686e-010 -7.02549e-012 1.39809e-011
689
root  -24.9291 38.3613 -1.08263 -97.8486 -85.578 88.3183
RightUpLeg  10.0157 -3.25433 -10.2559
RightLeg  49.8813 5.23775 6.24335
RightFoot  0.490167 -1.49771 14.2966
RightToes  2.96859e-009 0 -3.6325e-017
Spine  5.04241 0.948314 -2.16096
Spine1  14.4133 1.54913 -4.26862
HEad  -8.63288 1.16575 -2.93575
LeftShoulder1  -0.150184 3.95501 -27.0802
LeftArm  -15.7652 6.76366 -36.642
LeftForeArm  82.1039 -78.4471 -105.69
LeftHand  -0.0273654 5.22165 -3.05531
RightShoulder  -0.24331 -4.28309 23.881
RightArm  -13.9293 -10.8343 39.0529
RightForeArm  106.223 72.0977 140.548
RightHand  -0.0499098 -3.74751 -2.17162
LeftUpLeg  -13.4062 1.98488 -8.45991
LeftLeg  23.8401 4.94963 2.73748
LeftFoot  -0.656801 -0.846739 9.07348
LeftToes  3.24686e-010 -7.02549e-012 1.39809e-011
690
root  -25.8463 38.5102 -0.957973 -121.274 -85.021 112.006
RightUpLeg  3.10215 -0.30347 -9.86709
RightLeg  58.7726 3.35763 5.53435
RightFoot  1.98571 -1.48087 12.7021
RightToes  2.96859e-009 0 -3.6325e-017
Spine  5.66906 1.40448 -2.52033
Spine1  14.1578 1.87026 -4.59743
HEad  -9.17399 1.62923 -3.06447
LeftShoulder1  -0.0969368 3.79944 -26.582
LeftArm  -16.0254 7.00369 -36.4629
LeftForeArm  81.6258 -78.4624 -105.323
LeftHand  -0.027434 5.21763 -3.46229
RightShoulder  -0.253139 -4.31641 23.8462
RightArm  -13.7366 -9.77122 39.3397
RightForeArm  106.005 72.25 140.148
RightHand  -0.0509362 -3.60906 -1.92644
LeftUpLeg  -12.0691 3.67653 -8.4662
LeftLeg  23.8863 5.3477 2.93689
LeftFoot  -2.51103 -0.684582 9.04116
LeftToes  3.24686e-010 -7.02549e-012 1.39809e-011
691
root  -26.7784 38.7398 -0.813138 -131.611 -85.0354 122.631
RightUpLeg  -3.05465 1.09896 -9.29686
RightLeg  64.415 2.41402 4.93063
RightFoot  0.150485 -1.2026 11.9283
RightToes  2.96859e-009 0 -3.6325e-017
Spine  5.57057 1.25395 -2.73094
Spine1  14.4522 1.46265 -4.20796
HEad  -9.01207 1.99559 -3.25363
LeftShoulder1  -0.0731876 3.72797 -26.4401
LeftArm  -16.3456 6.76054 -36.3723
LeftForeArm  79.9813 -78.5047 -104.112
LeftHand  -0.0288374 5.13268 -3.14151
RightShoulder  -0.25781 -4.3288 23.9561
RightArm  -13.5918 -8.77628 39.7496
RightForeArm  106.196 72.4175 139.761
RightHand  -0.0526339 -3.90666 -2.06423
LeftUpLeg  -10.3338 4.61971 -7.97666
LeftLeg  23.1517 5.30253 2.77505
LeftFoot  -3.88718 -0.572594 9.13908
LeftToes  3.24686e-010 -7.02549e-012 1.39809e-011
692
root  -27.7286 38.9773 -0.725944 -140.752 -85.4159 132.258
RightUpLeg  -8.8593 2.23635 -8.1019
RightLeg  66.8986 1.87716 4.19428
RightFoot  -0.0783221 -1.03179 10.4348
RightToes  2.96859e-009 0 -3.6325e-017
Spine  5.13219 1.16596 -3.2073
Spine1  14.6114 0.912426 -2.83967
HEad  -8.69942 2.15257 -3.38758
LeftShoulder1  -0.0840641 3.75772 -26.9243
LeftArm  -16.4842 5.74901 -36.4379
LeftForeArm  77.335 -78.6161 -101.556
LeftHand  -0.025937 4.92724 -3.08018
RightShoulder  -0.292489 -4.44216 23.9947
RightArm  -13.9144 -8.49518 39.9559
RightForeArm  106.029 72.4675 139.613
RightHand  -0.0492401 -3.70816 -2.12647
LeftUpLeg  -8.66089 6.10727 -6.94864
LeftLeg  22.2094 4.24513 1.96922
LeftFoot  -5.20666 -0.473478 9.38685
LeftToes  3.24686e-010 -7.02549e-012 1.39809e-011
693
root  -28.691 39.1727 -0.61417 -146.094 -85.9275 137.821
RightUpLeg  -13.5741 2.6881 -7.32945
RightLeg  66.3154 1.71696 3.65156
RightFoot  -0.540654 -0.862794 9.06385
RightToes  2.96859e-009 0 -3.6325e-017
Spine  5.28077 0.720788 -3.36583
Spine1  14.0548 0.257367 -2.27645
HEad  -8.05178 1.92067 -2.36499
LeftShoulder1  -0.0863744 3.76718 -26.5741
LeftArm  -16.9123 5.87246 -36.9799
LeftForeArm  79.5677 -78.5845 -103.037
LeftHand  -0.0225581 4.87248 -3.39039
RightShoulder  -0.275464 -4.3859 23.9928
RightArm  -14.2744 -8.94162 40.2571
RightForeArm  106.468 72.2729 140.154
RightHand  -0.0482497 -3.77432 -2.24543
LeftUpLeg  -6.71261 5.77938 -6.30421
LeftLeg  21.3137 4.46363 1.81439
LeftFoot  -6.46515 -0.351309 9.15306
LeftToes  3.24686e-010 -7.02549e-012 1.39809e-011
694
root  -29.6797 39.3297 -0.452265 -146.687 -86.6063 138.457
RightUpLeg  -16.8558 2.62462 -7.09338
RightLeg  62.6365 2.09663 3.88269
RightFoot  -1.81487 -0.741051 8.73583
RightToes  2.96859e-009 0 -3.6325e-017
Spine  5.37089 0.126006 -2.86099
Spine1  13.721 -0.231468 -2.37134
HEad  -7.73805 1.61998 -1.65845
LeftShoulder1  -0.0638271 3.6999 -26.3557
LeftArm  -16.8065 5.10111 -37.1929
LeftForeArm  79.9784 -78.5707 -103.391
LeftHand  -0.0287882 5.20684 -3.21177
RightShoulder  -0.322185 -4.53483 24.1565
RightArm  -14.7466 -9.42801 40.1822
RightForeArm  107.431 71.8303 141.341
RightHand  -0.0487578 -3.75622 -2.68577
LeftUpLeg  -4.49326 5.64819 -5.98987
LeftLeg  20.2397 4.23361 1.52804
LeftFoot  -7.60665 -0.251513 9.0897
LeftToes  3.24686e-010 -7.02549e-012 1.39809e-011
